HIERARCHY
ROOT root
{
	OFFSET 0.000000 0.000000 0.000000
	CHANNELS 6 Xposition Yposition Zposition Zrotation Yrotation Xrotation
	JOINT lhip
	{
		OFFSET 0.058581 -0.082280 -0.017664
		CHANNELS 3 Zrotation Yrotation Xrotation
		JOINT lknee
		{
			OFFSET 0.043451 -0.386469 0.008037
			CHANNELS 3 Zrotation Yrotation Xrotation
			JOINT lankle
			{
				OFFSET -0.014790 -0.426874 -0.037428
				CHANNELS 3 Zrotation Yrotation Xrotation
				JOINT ltoe
				{
					OFFSET 0.041054 -0.060286 0.122042
					CHANNELS 3 Zrotation Yrotation Xrotation
					End Site
					{
						OFFSET 0.000000 0.000000 0.000000
					}
				}
			}
		}
	}
	JOINT rhip
	{
		OFFSET -0.060310 -0.090513 -0.013543
		CHANNELS 3 Zrotation Yrotation Xrotation
		JOINT rknee
		{
			OFFSET -0.043257 -0.383688 -0.004843
			CHANNELS 3 Zrotation Yrotation Xrotation
			JOINT rankle
			{
				OFFSET 0.019056 -0.420046 -0.034562
				CHANNELS 3 Zrotation Yrotation Xrotation
				JOINT rtoe
				{
					OFFSET -0.034840 -0.062106 0.130323
					CHANNELS 3 Zrotation Yrotation Xrotation
					End Site
					{
						OFFSET 0.000000 0.000000 0.000000
					}
				}
			}
		}
	}
	JOINT lowerback
	{
		OFFSET 0.004439 0.124404 -0.038385
		CHANNELS 3 Zrotation Yrotation Xrotation
		JOINT upperback
		{
			OFFSET 0.004488 0.137956 0.026820
			CHANNELS 3 Zrotation Yrotation Xrotation
			JOINT chest
			{
				OFFSET -0.002265 0.056032 0.002855
				CHANNELS 3 Zrotation Yrotation Xrotation
				JOINT lowerneck
				{
					OFFSET -0.013390 0.211636 -0.033468
					CHANNELS 3 Zrotation Yrotation Xrotation
					JOINT upperneck
					{
						OFFSET 0.010113 0.088937 0.050410
						CHANNELS 3 Zrotation Yrotation Xrotation
						End Site
						{
							OFFSET 0.000000 0.000000 0.000000
						}
					}
				}
				JOINT lclavicle
				{
					OFFSET 0.071702 0.114000 -0.018898
					CHANNELS 3 Zrotation Yrotation Xrotation
					JOINT lshoulder
					{
						OFFSET 0.122921 0.045205 -0.019046
						CHANNELS 3 Zrotation Yrotation Xrotation
						JOINT lelbow
						{
							OFFSET 0.255332 -0.015649 -0.022946
							CHANNELS 3 Zrotation Yrotation Xrotation
							JOINT lwrist
							{
								OFFSET 0.265709 0.012698 -0.007375
								CHANNELS 3 Zrotation Yrotation Xrotation
								End Site
								{
									OFFSET 0.000000 0.000000 0.000000
								}
							}
						}
					}
				}
				JOINT rclavicle
				{
					OFFSET -0.082954 0.112472 -0.023707
					CHANNELS 3 Zrotation Yrotation Xrotation
					JOINT rshoulder
					{
						OFFSET -0.113228 0.046853 -0.008472
						CHANNELS 3 Zrotation Yrotation Xrotation
						JOINT relbow
						{
							OFFSET -0.260127 -0.014369 -0.031269
							CHANNELS 3 Zrotation Yrotation Xrotation
							JOINT rwrist
							{
								OFFSET -0.269108 0.006794 -0.006027
								CHANNELS 3 Zrotation Yrotation Xrotation
								End Site
								{
									OFFSET 0.000000 0.000000 0.000000
								}
							}
						}
					}
				}
			}
		}
	}
}
MOTION
Frames: 16
Frame Time: 0.033333
0.013819 0.441268 0.974664 170.461911 -2.107569 84.489716 7.136029 7.645533 -10.177691 -9.180155 5.959550 37.011561 -2.689006 6.680194 -22.731683 0.000000 -0.000000 0.000000 -6.324217 -0.436058 -14.393453 4.391939 4.872078 39.566122 6.154845 -3.306061 -21.187371 0.000000 -0.000000 0.000000 -0.580618 -1.056058 12.992982 1.493396 -2.607031 -3.741800 -0.387149 -0.529779 0.576428 7.328902 2.596028 -8.032856 -0.914353 4.301952 6.541985 -28.082733 -5.921129 0.448705 -44.459642 -0.005018 7.895614 -0.820799 -23.197140 -1.207153 -0.583071 -17.587256 -23.161638 13.985741 11.913760 -8.876162 0.053538 27.699116 -18.545894 -67.569090 49.733176 -71.929486 0.074730 15.499170 -33.674431 
0.014203 0.444772 0.992683 171.218930 -2.195426 85.609238 6.162265 6.729754 -7.459177 -9.484981 3.852006 28.888820 -1.141854 9.292132 -17.351898 0.000000 -0.000000 0.000000 -6.601618 -0.919161 -11.828213 4.580648 5.608464 32.572029 5.255931 -4.969015 -17.037215 0.000000 -0.000000 0.000000 -0.294089 -1.009014 10.487116 1.426613 -2.590161 -3.063735 -0.674628 -0.423833 -0.071945 6.554914 1.560385 -6.642512 -0.718303 4.920835 5.284322 -27.778907 -5.104726 2.229330 -44.468364 -1.393372 7.956971 -1.258962 -23.929295 3.177086 2.382202 -16.697243 -29.470258 12.939211 10.572307 -8.173194 0.420362 28.563219 -18.763850 -65.958274 50.194946 -67.525553 -3.087236 15.002667 -38.117993 
0.015527 0.448447 1.006771 171.978110 -2.004360 86.324007 5.518695 6.262294 -4.711922 -8.444632 2.385123 21.916507 -1.708683 9.571656 -13.676766 0.000000 -0.000000 0.000000 -6.287424 -1.150027 -8.744530 3.557712 5.786205 25.602172 5.524592 -4.868976 -14.098165 0.000000 -0.000000 0.000000 0.233888 -0.704035 8.484653 0.979649 -2.658013 -2.828328 -0.705007 -0.253083 -0.276471 5.901480 1.312326 -5.645485 -0.282801 5.226138 4.891448 -26.716695 -5.092989 2.254496 -45.250781 -1.914588 8.313865 -1.388296 -23.849693 4.174180 2.582115 -16.828740 -30.110832 11.641652 9.955446 -7.671506 1.905237 27.874218 -17.713575 -66.762546 50.334152 -66.721415 -4.038817 14.586116 -38.435944 
0.017473 0.452055 1.016785 172.986594 -1.808957 86.753067 4.830409 5.917680 -2.055446 -6.807938 1.427427 15.711965 -2.270256 9.261109 -10.633605 0.000000 -0.000000 0.000000 -5.932764 -1.571557 -5.443801 2.556743 5.562988 18.974709 5.986621 -4.631239 -11.257971 0.000000 -0.000000 0.000000 0.435554 -0.112459 6.763901 0.673242 -2.767221 -2.625901 -0.638252 -0.138630 -0.508549 5.346329 1.015973 -4.614055 0.257172 5.146837 4.634004 -25.970586 -5.199040 1.981449 -46.051629 -2.653649 8.608561 -1.168660 -23.450376 4.285200 2.642922 -17.016446 -29.134018 11.122175 9.112239 -7.313747 4.083709 26.646397 -16.003134 -69.709183 51.046830 -68.203118 -4.783856 14.491312 -38.654702 
0.019880 0.455930 1.022642 174.487813 -1.448530 86.995085 4.491325 5.980689 0.831457 -5.216636 0.612818 9.472278 -2.538965 8.508703 -7.900447 0.000000 -0.000000 0.000000 -5.690412 -2.229533 -1.841053 2.130101 4.738609 12.516717 6.201543 -4.311433 -8.792570 0.000000 -0.000000 0.000000 0.501591 0.269438 5.239913 0.590710 -3.100969 -2.497762 -0.601044 -0.129395 -0.722736 4.965038 0.444130 -3.785535 0.770709 4.348135 4.573089 -25.676568 -4.950077 1.588643 -46.536223 -3.367638 8.680007 -1.104389 -23.526617 4.495014 2.708308 -16.995099 -27.948103 11.545471 7.817220 -7.096097 7.329487 25.359439 -13.612915 -75.148637 52.845389 -71.764309 -5.762013 14.903474 -38.710656 
0.022671 0.459600 1.024644 176.184643 -0.985109 87.302815 4.843299 6.123036 3.569325 -4.399109 -0.014830 3.554361 -3.061233 7.316043 -5.390592 0.000000 -0.000000 0.000000 -5.740068 -2.971450 1.462424 2.642065 3.242544 6.734531 6.632579 -3.661330 -6.686372 0.000000 -0.000000 0.000000 0.305919 0.442873 3.707632 0.772480 -3.604047 -2.338190 -0.589377 -0.256481 -0.823434 4.800017 -0.109633 -3.272961 1.162125 3.137786 4.359700 -25.884336 -4.116526 1.131069 -46.778507 -3.786259 8.801804 -0.832737 -24.752414 4.477986 2.803550 -17.147425 -27.670480 12.793569 6.069320 -6.918314 12.086278 23.899675 -9.838241 -84.136801 54.536088 -78.415867 -6.053274 15.007932 -38.338335 
0.025508 0.461762 1.023897 177.970141 -0.624107 87.919671 5.571260 5.768616 4.732001 -4.446761 -0.239807 -0.027424 -3.454581 6.084170 -3.892316 0.000000 -0.000000 0.000000 -5.939087 -3.516870 3.289006 3.679163 1.794120 3.202610 6.940661 -3.013385 -5.589728 0.000000 -0.000000 0.000000 -0.560441 0.655286 2.049026 1.375447 -4.298372 -2.021914 -0.342138 -0.286906 -1.014828 4.638606 -0.061699 -3.404042 1.340013 1.556568 4.257071 -26.179054 -3.123815 1.107665 -47.460608 -4.363897 8.632820 -0.611475 -25.989943 3.871860 2.912459 -17.008787 -27.525120 15.426658 4.276894 -6.000985 16.466841 21.811873 -6.551084 -95.172801 55.218073 -86.627398 -6.192754 16.083262 -37.874316 
0.027872 0.461880 1.022296 179.286884 -0.637657 88.232750 6.008335 5.106918 4.511358 -4.840675 -0.540863 -0.459404 -3.609467 5.393480 -3.777713 0.000000 -0.000000 0.000000 -6.028676 -3.482521 3.444091 4.187154 0.975598 2.996611 6.804570 -2.911172 -6.076149 0.000000 -0.000000 0.000000 -1.891732 0.891205 1.321532 2.185393 -4.724853 -1.919170 -0.160904 -0.316750 -1.141313 4.486166 0.624709 -4.206283 1.228313 -0.160031 4.431081 -27.076553 -2.502714 1.288656 -47.153856 -4.663744 8.463075 -1.068918 -27.024492 4.017843 2.889728 -17.062399 -27.463624 19.072339 2.450810 -5.097189 20.187771 19.413725 -3.566099 -105.385117 55.451826 -94.215997 -6.115917 17.040251 -36.891983 
0.030176 0.461448 1.021715 179.957365 -0.607742 87.674276 6.281483 4.287513 4.472953 -4.930189 -0.871232 0.638283 -3.530659 5.454266 -4.376360 0.000000 -0.000000 0.000000 -5.620505 -3.293876 3.527736 4.006750 0.724479 4.272652 6.383758 -3.309014 -6.974492 0.000000 -0.000000 0.000000 -2.768504 1.189567 1.569042 2.825838 -4.966271 -1.267985 -0.043641 -0.279241 -1.055118 4.184779 1.495291 -5.391440 1.131846 -1.691101 4.028349 -27.866578 -2.444621 1.646301 -46.768398 -4.948074 8.296914 -1.692078 -27.578759 5.090357 2.755099 -17.128546 -28.559131 21.930201 1.042466 -4.161660 23.714200 17.356052 -1.359977 -111.430256 55.689170 -97.722723 -5.946798 17.334546 -36.023197 
0.031541 0.460218 1.021775 -179.830522 -0.719682 87.001586 6.126577 4.287409 4.532722 -4.740442 -1.303690 1.741949 -3.233532 5.573137 -4.697971 0.000000 -0.000000 0.000000 -5.263007 -3.246718 3.420659 3.455701 0.611307 5.774753 6.033693 -3.662044 -7.654166 0.000000 -0.000000 0.000000 -3.327484 1.256049 2.228562 3.021384 -5.092405 -0.744427 0.194319 -0.434418 -0.903018 3.988120 1.594740 -6.089884 1.175359 -1.982921 3.401648 -27.501115 -2.180628 1.989531 -47.683722 -5.125983 8.106248 -2.081120 -27.372698 5.826470 3.817782 -16.137131 -30.329332 22.725743 0.287068 -3.496214 28.036538 16.149297 1.000402 -112.037883 57.514028 -97.419827 -5.688229 17.115453 -37.010672 
0.031697 0.458847 1.021876 179.859676 -0.890121 86.502720 5.942636 4.841697 4.809882 -4.710083 -1.598342 2.230341 -2.963863 5.698829 -4.978857 0.000000 -0.000000 0.000000 -5.394864 -3.336377 3.281822 3.329159 0.639044 6.806260 5.998077 -3.521307 -7.905644 0.000000 -0.000000 0.000000 -3.384829 1.057870 2.892181 3.004638 -4.990973 -0.830718 0.254430 -0.474227 -0.736955 3.913686 1.688894 -6.001102 1.197172 -1.907531 3.495591 -27.281757 -1.557057 2.218316 -48.243336 -4.796852 8.016514 -2.684662 -27.213592 5.747093 4.686343 -15.491741 -30.629151 23.102230 -0.032131 -3.027224 31.126839 15.473008 3.360644 -109.913236 60.096880 -96.055472 -6.408656 16.720392 -38.020222 
0.031396 0.458370 1.021451 179.214102 -0.977536 86.299723 5.958908 4.891733 4.977634 -4.945122 -1.547019 2.638283 -2.729825 6.012524 -5.383435 0.000000 -0.000000 0.000000 -5.602582 -3.320953 3.149561 3.417588 1.059954 7.270314 5.950299 -3.295118 -8.083518 0.000000 -0.000000 0.000000 -2.953361 1.138167 2.972428 3.006977 -4.796206 -0.666379 0.156214 -0.496016 -0.786447 3.683608 1.712517 -5.677483 0.945969 -1.598954 3.627038 -27.698843 -1.231284 2.368732 -48.152851 -3.884299 8.191751 -2.986440 -27.222940 6.199306 3.974662 -15.316563 -29.596724 23.559039 0.061218 -2.682194 32.877500 14.408187 5.394659 -108.969772 61.747890 -94.928051 -5.632046 16.938443 -36.182480 
0.030893 0.458499 1.021218 178.468146 -1.091736 86.098762 5.856616 4.535420 5.359114 -5.093642 -1.330224 2.713617 -2.651196 6.544230 -5.623487 0.000000 -0.000000 0.000000 -5.728079 -2.982346 3.267499 3.351860 1.368767 7.342914 5.911189 -3.185453 -8.186722 0.000000 -0.000000 0.000000 -2.353567 1.239771 3.023347 2.958673 -4.543006 -0.481745 -0.063780 -0.485953 -0.839268 3.522632 1.912293 -5.430851 0.857396 -1.325265 3.641868 -27.950393 -0.904763 2.515931 -48.264150 -3.221573 8.449225 -3.074486 -27.012435 6.959981 3.414155 -15.824998 -29.787540 23.723955 0.164142 -2.177207 34.675362 13.278086 7.279760 -109.051272 62.920110 -94.264532 -5.429884 16.934820 -35.782987 
0.030296 0.458065 1.021613 178.017811 -1.234095 86.065563 5.628344 4.418673 5.540958 -5.103449 -1.187204 2.619247 -2.665940 6.808421 -5.568028 0.000000 -0.000000 0.000000 -5.889989 -2.840858 3.272972 3.260134 1.439579 7.263495 5.931663 -3.029212 -8.041244 0.000000 -0.000000 0.000000 -1.845958 1.204391 3.040219 2.873965 -4.516321 -0.324530 -0.134492 -0.549668 -0.815077 3.400821 2.003817 -5.670502 0.818685 -1.123079 3.455930 -28.182826 -0.613596 2.695038 -48.689159 -2.830349 8.549095 -2.915783 -26.732880 6.432609 3.923534 -15.487744 -30.389511 24.103717 -0.093206 -1.959295 36.461331 12.806549 8.533240 -108.654251 64.458496 -93.888008 -4.658297 16.875259 -36.565274 
0.030236 0.457150 1.022044 178.026395 -1.272737 86.093936 5.589359 4.595864 5.649902 -5.068496 -1.153498 2.315692 -2.805420 6.605905 -5.369807 0.000000 -0.000000 0.000000 -5.919228 -2.640255 3.262821 3.230668 0.917582 7.154669 5.845405 -2.857894 -7.916512 0.000000 -0.000000 0.000000 -1.537243 0.942426 3.282978 3.009680 -4.569445 -0.495342 -0.056983 -0.665267 -0.858695 3.339669 2.260945 -5.908088 0.549517 -1.260686 3.371650 -28.230394 -0.270331 2.677627 -49.458741 -2.685079 8.223270 -2.314308 -25.480881 6.289474 2.348938 -15.820738 -28.945712 24.494315 -0.518857 -1.834625 38.244436 12.367625 9.398686 -108.103518 65.911808 -92.784433 -4.389137 16.907678 -36.668886 
0.030751 0.456153 1.022078 178.256093 -1.390145 86.251274 5.523380 4.812784 5.552025 -5.092800 -1.239357 2.030027 -2.782734 6.388429 -5.150535 0.000000 -0.000000 0.000000 -6.044627 -2.905310 3.174340 3.251961 0.786267 6.986281 5.797745 -2.641034 -7.870268 0.000000 -0.000000 0.000000 -1.338911 0.828199 3.264454 3.115934 -4.788834 -0.794221 -0.140333 -0.747953 -0.710033 3.352098 2.524327 -6.053568 0.585263 -1.311622 3.487360 -28.319493 -0.029157 2.739321 -49.901903 -2.829403 7.934026 -2.214226 -24.225601 6.481788 2.322453 -15.931092 -28.491605 24.937272 -1.094015 -1.795627 40.134647 11.670658 10.376379 -107.563632 67.242173 -91.365061 -4.360205 16.770822 -35.716025 
